# xmcd
#
# Track frame offsets: 
#        150
#        21874
#        40293
#        57956
#        72952
#        84247
#        110821
#        119379
#        130821
#
# Disc length: 2021 seconds
#
# Revision: 0
# Processed by: cddbd v1.5.2PL0 Copyright (c) Steve Scherf et al.
# Submitted via: ExactAudioCopy v0.99pb5
#
DISCID=7907e309
DTITLE=Cuby and Blizzards - King of the World
DYEAR=1970
DGENRE=Blues
TTITLE0=King Of The World
TTITLE1=Feel So Bad
TTITLE2=The Big Bell
TTITLE3=Big Blue-Eyed Girl
TTITLE4=Goin' Home
TTITLE5=The Sky Is Crying
TTITLE6=Another Day, Another Road
TTITLE7=Trippin' Thru A Midnight Blues
TTITLE8=No Shoes
EXTD=
EXTT0=
EXTT1=
EXTT2=
EXTT3=
EXTT4=
EXTT5=
EXTT6=
EXTT7=
EXTT8=
PLAYORDER=
